<svg width="48" height="48" xmlns="http://www.w3.org/2000/svg" xmlns:xlink="http://www.w3.org/1999/xlink" xmlns:svgjs="http://svgjs.com/svgjs" viewBox="1825 28 48 48"><svg width="48" height="48" xmlns="http://www.w3.org/2000/svg" xmlns:xlink="http://www.w3.org/1999/xlink" xmlns:svgjs="http://svgjs.com/svgjs" fill="#5d5d5d" x="1825" y="28"><svg xmlns="http://www.w3.org/2000/svg" xmlns:xlink="http://www.w3.org/1999/xlink" width="48" height="48" viewBox="0.908 0.908 46.184 46.184"><path paint-order="stroke fill markers" fill-rule="evenodd" d="M24 .908c9.82 0 18.209 6.13 21.615 14.948.93 2.405 1.477 5.21 1.477 8.144 0 12.753-10.338 23.092-23.092 23.092C11.247 47.092.908 36.753.908 24 .908 11.247 11.247.908 24 .908z"/></svg></svg><svg width="34" height="33" xmlns="http://www.w3.org/2000/svg" xmlns:xlink="http://www.w3.org/1999/xlink" xmlns:svgjs="http://svgjs.com/svgjs" viewBox="1832 35 34 33" x="1832" y="35"><svg width="34" height="32" xmlns="http://www.w3.org/2000/svg" xmlns:xlink="http://www.w3.org/1999/xlink" xmlns:svgjs="http://svgjs.com/svgjs" viewBox="0.174 0 33.651 32" fill="#9e9e9d" x="1832" y="36"><svg xmlns="http://www.w3.org/2000/svg" xmlns:xlink="http://www.w3.org/1999/xlink" width="34" height="32" viewBox="0.953 0.938 32.491 30.896"><path paint-order="stroke fill markers" fill-rule="evenodd" d="M28.062 1.081c-.536 1.394-.684 3.067-1.215 4.463a.282.282 0 0 0 .024.21c.128.228.285.439.403.67.376.744.447 1.515.17 2.31-.185.53-.484.993-.844 1.419-.073.086-.081.152-.015.246.246.352.399.744.475 1.166.04.223.106.411.325.551.64.407 1.258.845 1.888 1.266.347.232.695.464 1.054.675.32.188.66.337.982.522.64.37 1.18.848 1.423 1.567.135.402.19.832.277 1.25.015.07 0 .142.104.163.27.054.326.122.328.4.004.471.004.942 0 1.412-.004.377-.156.59-.51.728a2.57 2.57 0 0 1-.235.085c-.113.032-.158.1-.153.22.022.466-.076.348.358.566.023.012.047.021.07.034.196.107.246.256.152.458-.057.123-.117.245-.178.367a.477.477 0 0 1-.565.25c-.146-.04-.289-.095-.437-.124-.058-.012-.154.007-.188.048-.48.572-1.12.85-1.827.98a5.628 5.628 0 0 1-3.471-.455c-.511-.239-1.01-.505-1.515-.755-.291-.144-.593-.276-.922-.278-.784-.007-1.518.196-2.21.561-.093.05-.13.108-.093.214.09.245.164.495.26.738a6.568 6.568 0 0 0 1.324 2.13c.7.748 1.543 1.298 2.461 1.728.894.418 1.807.795 2.71 1.192.046.02.085.055.16.103-.078.02-.112.031-.146.036-.497.069-.996.121-1.49.208-.972.17-1.935.391-2.868.713-1.278.44-2.548.903-3.813 1.38-1.013.38-2.037.723-3.094.954-.776.169-1.56.284-2.354.342-1.841.136-3.632-.06-5.347-.775-1.326-.554-2.434-1.397-3.295-2.55-1.031-1.385-1.52-2.974-1.701-4.669a13.671 13.671 0 0 1 .042-3.16c.012-.094-.018-.14-.104-.18a5.297 5.297 0 0 1-.552-.296c-.658-.415-1.211-.958-1.787-1.475-.02-.018-.03-.05-.062-.106L4.2 18.34c-1.4-.393-2.394-1.305-3.247-2.42a.306.306 0 0 1 .154-.02c.186.029.37.068.557.09.52.064 1.032.034 1.532-.133a2.826 2.826 0 0 0 1.476-1.14 61.554 61.554 0 0 0 1.531-2.423c.648-1.07 1.319-2.121 2.18-3.038.13-.14.266-.274.407-.418-.036-.02-.053-.032-.07-.04a1.984 1.984 0 0 0-.12-.042c-.907-.299-1.48-.903-1.639-1.855-.091-.544-.138-1.097-.203-1.646-.003-.031.013-.065.026-.122.064.048.11.079.153.114.154.125.305.255.461.377.491.384 1.03.645 1.672.598.608-.044 1.167-.263 1.71-.528.015-.008.022-.031.048-.07-.033-.023-.067-.04-.093-.064a1.581 1.581 0 0 1-.51-1.173c-.006-.383.124-.728.312-1.053.405-.7 1-1.228 1.587-1.764.02-.018.053-.024.11-.049-.007.073-.013.12-.015.169-.01.177-.037.355-.025.53.029.433.257.633.678.591.238-.023.476-.067.708-.126.784-.198 1.562-.42 2.348-.609a11.254 11.254 0 0 1 3.315-.298c.783.046 1.544.207 2.247.57.332.171.64.387.972.591l.063-.118a2.17 2.17 0 0 1 1.018-.984c.177-.086.204-.063.25.133.159.69.46 1.285 1.102 1.658.2.116.194.126.337-.052.747-.928 1.815-1.71 2.564-2.637l.266.143"/></svg></svg><svg width="34" height="33" xmlns="http://www.w3.org/2000/svg" xmlns:xlink="http://www.w3.org/1999/xlink" xmlns:svgjs="http://svgjs.com/svgjs" viewBox="1832 35 34 33" x="1832" y="35"><svg width="34" height="33" xmlns="http://www.w3.org/2000/svg" xmlns:xlink="http://www.w3.org/1999/xlink" xmlns:svgjs="http://svgjs.com/svgjs" viewBox="0.279 0 33.442 33" fill="#434343" x="1832" y="35"><svg xmlns="http://www.w3.org/2000/svg" xmlns:xlink="http://www.w3.org/1999/xlink" width="34" height="33" viewBox="0.953 0.773 32.491 32.062"><path paint-order="stroke fill markers" fill-rule="evenodd" d="M28.757.773c-.536 1.394-1.379 4.375-1.91 5.77a.282.282 0 0 0 .024.212c.128.227.285.438.403.67.376.743.447 1.514.17 2.308-.185.531-.484.994-.844 1.42-.073.086-.081.152-.015.246.246.352.399.744.475 1.166.04.223.106.411.325.551.64.407 1.258.845 1.888 1.266.347.232.695.464 1.054.675.32.188.66.337.982.522.64.37 1.18.848 1.423 1.567.135.402.19.832.277 1.25.015.07 0 .142.104.163.27.054.326.122.328.4.004.471.004.942 0 1.412-.004.377-.156.59-.51.728-.077.03-.155.062-.235.085-.113.032-.158.1-.153.22.022.466-.076.348.358.566.023.012.047.021.07.034.196.107.246.256.152.458-.057.123-.117.245-.178.367a.477.477 0 0 1-.565.25c-.146-.04-.289-.095-.437-.124-.058-.012-.154.007-.188.048-.48.572-1.12.85-1.827.98a5.628 5.628 0 0 1-3.471-.455c-.511-.239-1.01-.505-1.515-.755-.291-.144-.593-.276-.922-.278-.784-.007-1.518.196-2.21.561-.093.05-.13.108-.092.214.088.245.163.495.258.738a6.568 6.568 0 0 0 1.325 2.13c.7.748 1.543 1.298 2.461 1.728.894.418 1.807.795 2.71 1.192.046.02.085.055.16.103-.078.02-.112.031-.146.036-.497.069-.996.121-1.49.208-.972.17-1.935.391-2.868.713-1.278.44-2.548.903-3.813 1.38-1.013.38-2.037.723-3.094.954-.776.169-1.56.284-2.354.342-1.841.136-3.632-.06-5.347-.775-1.326-.554-2.434-1.397-3.294-2.55-1.032-1.385-1.52-2.974-1.702-4.669a13.671 13.671 0 0 1 .042-3.16c.012-.094-.018-.14-.104-.18a5.297 5.297 0 0 1-.552-.296c-.658-.415-1.211-.958-1.787-1.475-.02-.018-.03-.05-.062-.106L4.2 19.34c-1.4-.393-2.394-1.305-3.247-2.42a.306.306 0 0 1 .154-.02c.186.029.37.068.557.09.52.064 1.032.034 1.532-.133a2.827 2.827 0 0 0 1.476-1.14 61.554 61.554 0 0 0 1.531-2.423c.648-1.07 1.319-2.121 2.18-3.038.13-.14.266-.274.407-.418-.036-.02-.053-.032-.07-.04a2.078 2.078 0 0 0-.12-.042c-.907-.299-1.48-.903-1.639-1.855-.091-.544-.138-1.097-.203-1.646-.003-.031.013-.065.026-.122.064.048.11.079.153.114.154.125.305.255.461.377.491.384 1.03.645 1.672.598.609-.044 1.167-.263 1.71-.528.015-.008.022-.031.048-.07-.033-.023-.067-.04-.093-.064a1.581 1.581 0 0 1-.51-1.173c-.006-.383.124-.728.312-1.053.405-.7 1-1.228 1.587-1.764.02-.018.053-.024.11-.049-.007.073-.013.12-.015.169-.01.177-.037.355-.025.53.029.433.257.633.678.591.238-.023.476-.067.708-.126.784-.198 1.562-.42 2.348-.609a11.254 11.254 0 0 1 3.315-.298c.783.046 1.544.207 2.247.57.332.171.64.387.972.591l.063-.118a2.17 2.17 0 0 1 1.018-.984c.177-.086.204-.063.25.133.159.69.46 1.285 1.102 1.658.2.116.194.126.337-.052.747-.928 2.55-2.876 3.3-3.802h.225m-3.35 10.358c-.047-.04-.092-.092-.148-.113-.044-.017-.103-.001-.154.009-.038.008-.073.035-.112.045-1.407.354-2.531-.058-3.327-1.394-.077-.128-.137-.268-.214-.396a.277.277 0 0 0-.122-.091c-.242-.11-.483-.224-.73-.321a.401.401 0 0 1-.246-.256 7.174 7.174 0 0 0-2.184-3.008 4.66 4.66 0 0 0-1.083-.684c0 .047-.01.084.002.11.367.813.72 1.634 1.112 2.435.25.51.593.962 1.112 1.242.126.067.262.117.415.185-.3.053-.577.098-.85.152a8.802 8.802 0 0 0-3.622 1.6c-1.573 1.181-2.636 2.732-3.278 4.581a10.785 10.785 0 0 0-.546 4.818c.22 1.935.895 3.687 2.182 5.172 1.055 1.217 2.37 2.034 3.913 2.484.28.083.566.145.85.216.033.008.069.008.152.017-1.516-1.674-2.644-3.52-3.18-5.7 1.653 2.365 3.757 4.15 6.48 5.149l.036-.04c-.145-.16-.291-.32-.434-.482-.76-.862-1.396-1.8-1.756-2.903-.093-.287-.15-.585-.234-.876a.27.27 0 0 0-.126-.157 7.401 7.401 0 0 1-2.752-2.105c-.75-.927-1.231-1.97-1.333-3.171-.096-1.14.188-2.184.796-3.147a.421.421 0 0 1 .156-.15c-.02.117-.035.235-.061.35a8.117 8.117 0 0 0-.182 1.835c0 .916.183 1.789.64 2.586.595 1.036 1.478 1.706 2.643 1.981 1.485.352 2.862.046 4.143-.738.338-.207.64-.47.957-.708.023-.017.039-.047.076-.092-.793-.44-1.278-1.087-1.357-1.998a1.9 1.9 0 0 1 .12-.899c.075.177.13.324.197.466.282.602.781.926 1.418 1.006.49.062.99.046 1.484.068.4.018.804.022 1.201.07.16.019.313.13.459.216.047.028.064.108.095.164-.057.02-.112.053-.17.058-.374.028-.75.05-1.125.075-.025.002-.049.009-.113.022.07.056.112.097.161.127.995.593 2.036 1.084 3.151 1.41.632.185 1.272.31 1.93.24.235-.025.466-.108.69-.186.058-.02.11-.119.122-.189.019-.124.005-.254.005-.419-.388.207-.753.342-1.172.264.086-.047.176-.09.257-.144.105-.07.21-.14.301-.223a.638.638 0 0 0 .216-.515c-.012-.544-.01-1.087-.203-1.608-.183-.492-.506-.885-.874-1.246-.019-.018-.043-.03-.066-.042-.008-.005-.02-.001-.057-.001l.163 1.241-.035.014c-.104-.172-.21-.343-.313-.516-.19-.318-.375-.64-.57-.955a.639.639 0 0 0-.18-.19c-1.624-1.104-3.25-2.205-4.875-3.307a.702.702 0 0 1-.184-.168l1.192.155c-.126-.603-.427-1.053-.858-1.425zM4.615 20.32a5.907 5.907 0 0 0 1.806.142c.962-.081 1.808-.624 2.23-1.684-.57.662-1.228 1.074-2.071 1.123l-.02-.037c.113-.058.229-.113.339-.177.54-.312.925-.783 1.253-1.295.47-.734.912-1.487 1.366-2.232.5-.822 1.023-1.629 1.692-2.328.197-.208.414-.397.623-.595l.134-.124-.021-.038c-.202.098-.407.19-.604.294-1.115.595-1.909 1.507-2.539 2.581-.396.676-.778 1.361-1.2 2.021-.511.802-1.192 1.432-2.091 1.776-.416.16-.861.244-1.293.363l-.14.036-.001.046c.179.043.358.087.537.128zm21.337.06c-.01.13.1.139.194.157.434.085.868.171 1.302.293-.042.006-.083.013-.125.017-.375.03-.75.055-1.125.088-.183.017-.207.044-.143.217.063.175.156.34.239.508.049.1.126.117.234.096.95-.188 1.91-.297 2.879-.306.748-.006 1.492.054 2.233.164.136.02.176-.032.159-.167-.014-.11-.094-.09-.165-.096-.404-.038-.812-.059-1.213-.121-.678-.107-1.322-.336-1.955-.595a14.16 14.16 0 0 1-2.278-1.178c-.03-.018-.063-.031-.147-.073-.033.357-.066.676-.09.996zM16.68 7.326c-.363-.666-2.116-1.007-2.725-.896-.991.181-1.886.635-2.813.997-.524.204-1.05.41-1.589.57-.542.16-1.103.177-1.651-.006-.14-.047-.271-.12-.428-.193.012.05.015.08.026.104.27.586.792.83 1.448.704.589-.114 1.138-.337 1.69-.56.758-.307 1.515-.62 2.288-.886a3.18 3.18 0 0 1 1.515-.162c.486.074 2.035.562 2.363.933.05.057.086.126.129.19l.075-.05c-.109-.25-.2-.508-.328-.745zm7.63-.185a2.31 2.31 0 0 0 1.138.741c.034.01.108-.017.119-.044.17-.42.335-.843.494-1.268.012-.03-.021-.097-.053-.12-.236-.17-.476-.338-.72-.497-.036-.023-.13-.02-.152.008-.286.34-.564.686-.843 1.03-.015.02-.024.045-.038.07.02.03.035.057.055.08zm-.017 3.57c.26-.643.513-1.289.755-1.938.018-.046-.032-.148-.08-.183-.362-.26-.728-.516-1.101-.76-.055-.035-.197-.03-.233.012-.436.52-.86 1.048-1.287 1.576-.024.03-.038.068-.059.107 0 0 .642 1.41 2.005 1.185zm6.81 11.686c-.45-.211-2.378-.218-3.223-.008.753.73 2.601.728 3.223.008zM26.294 4.5c-.226.28-.446.564-.677.84-.082.097-.072.164.02.233.145.11.293.215.44.323.103.075.162.047.207-.071.186-.498.38-.993.57-1.49l.347-.9-.033-.016-.874 1.08zm-1.55 16.238c-.021.458.32.93.828 1.114-.307-.834-.291-1.679-.228-2.534-.305.434-.573.883-.6 1.42z"/></svg></svg><svg width="7" height="3" xmlns="http://www.w3.org/2000/svg" xmlns:xlink="http://www.w3.org/1999/xlink" xmlns:svgjs="http://svgjs.com/svgjs" viewBox="0 0.077 7 2.846" fill="#fff" x="1857" y="54"><svg xmlns="http://www.w3.org/2000/svg" xmlns:xlink="http://www.w3.org/1999/xlink" width="7" height="3" viewBox="0.95 0.384 5.852 2.379"><path paint-order="stroke fill markers" fill-rule="evenodd" d="M1.04.384c-.033.357-.066.676-.09.996-.009.13.101.139.195.157.434.085.868.171 1.302.293-.042.006-.084.013-.126.017-.374.03-.75.055-1.124.088-.183.017-.207.044-.144.217.064.175.157.34.24.508.049.1.126.117.234.096.95-.188 1.91-.297 2.878-.306.75-.006 1.493.054 2.234.164.136.02.176-.032.159-.167-.014-.11-.094-.09-.165-.096-.404-.038-.812-.059-1.213-.121-.677-.107-1.322-.336-1.955-.595A14.16 14.16 0 0 1 1.187.457C1.157.44 1.124.426 1.04.384z"/></svg></svg><svg width="7" height="5" xmlns="http://www.w3.org/2000/svg" xmlns:xlink="http://www.w3.org/1999/xlink" xmlns:svgjs="http://svgjs.com/svgjs" viewBox="0 0.44 7 4.12" fill="#505050" x="1851" y="46"><svg xmlns="http://www.w3.org/2000/svg" xmlns:xlink="http://www.w3.org/1999/xlink" width="7" height="5" viewBox="0.186 0.498 6.035 3.552"><path paint-order="stroke fill markers" fill-rule="evenodd" d="M.19 1.143C.68.567 1.27.278 1.96.696c.372.225.7.525 1.053.782.286.208.574.416.877.597.17.102.398-.007.445-.201.038-.153.032-.317.038-.476.002-.057-.017-.115-.031-.208.051.038.07.047.082.062.214.26.387.547.472.875.044.17.073.361-.066.507-.098.104-.05.156.032.225.362.308.723.618 1.083.928.094.081.184.168.276.252a.12.12 0 0 1-.104-.002c-.794-.371-1.586-.744-2.383-1.11a.397.397 0 0 0-.253-.02c-.34.097-.684.13-1.037.11-.416-.022-.721-.219-.942-.562-.198-.308-.302-.652-.365-1.009-.063-.35-.164-.428-.518-.378-.107.015-.21.056-.316.086-.037.01-.073.023-.117.037.002-.029-.001-.042.004-.048zM2.004 2.25c.284.334.667.29 1.044.24.082-.012.16-.04.24-.06-.062-.194-1.437-1.274-1.67-1.296.06.41.119.801.386 1.116z"/></svg></svg><svg width="3" height="3" xmlns="http://www.w3.org/2000/svg" xmlns:xlink="http://www.w3.org/1999/xlink" xmlns:svgjs="http://svgjs.com/svgjs" viewBox="0 0.197 3 2.605" fill="#434343" x="1858" y="50"><svg xmlns="http://www.w3.org/2000/svg" xmlns:xlink="http://www.w3.org/1999/xlink" width="3" height="3" viewBox="0.783 0.514 1.831 1.59"><path paint-order="stroke fill markers" fill-rule="evenodd" d="M1.22 1.587c.11-.237.269-.3.494-.157.267.17.51.375.764.565.039.029.075.06.134.109 0-.054.006-.077-.001-.093-.219-.477-.466-.935-.885-1.27-.1-.08-.221-.137-.34-.186-.17-.069-.34-.058-.482.074-.15.142-.14.323-.08.495a.89.89 0 0 0 .396.463z"/></svg></svg><svg width="3" height="2" xmlns="http://www.w3.org/2000/svg" xmlns:xlink="http://www.w3.org/1999/xlink" xmlns:svgjs="http://svgjs.com/svgjs" viewBox="0.298 0 2.404 2" fill="#d0d0d0" x="1852" y="47"><svg xmlns="http://www.w3.org/2000/svg" xmlns:xlink="http://www.w3.org/1999/xlink" width="3" height="2" viewBox="0.617 0.133 1.671 1.39"><path paint-order="stroke fill markers" fill-rule="evenodd" d="M.617.133c.06.41.12.801.387 1.116.284.334.667.29 1.044.24.081-.012.16-.04.24-.06C2.226 1.234.851.154.618.132z"/></svg></svg></svg><svg width="20" height="11" xmlns="http://www.w3.org/2000/svg" xmlns:xlink="http://www.w3.org/1999/xlink" xmlns:svgjs="http://svgjs.com/svgjs" viewBox="0.175 0 19.65 11" fill="#898989" x="1839" y="55"><svg xmlns="http://www.w3.org/2000/svg" xmlns:xlink="http://www.w3.org/1999/xlink" width="20" height="11" viewBox="0.658 0.48 18.723 10.481"><path paint-order="stroke fill markers" fill-rule="evenodd" d="M2.785.48S-8.102 16.733 19.381 8.76c0 0-19.033 2.822-16.596-8.28z"/></svg></svg><svg width="5" height="9" xmlns="http://www.w3.org/2000/svg" xmlns:xlink="http://www.w3.org/1999/xlink" xmlns:svgjs="http://svgjs.com/svgjs" viewBox="0.417 0 4.167 9" fill="#898989" x="1838" y="52"><svg xmlns="http://www.w3.org/2000/svg" xmlns:xlink="http://www.w3.org/1999/xlink" width="5" height="9" viewBox="0.696 0.104 3.989 8.617"><path paint-order="stroke fill markers" fill-rule="evenodd" d="M4.685.104S.575 3.964.698 8.72c0 0 .368-3.958 3.987-8.616z"/></svg></svg><svg width="17" height="11" xmlns="http://www.w3.org/2000/svg" xmlns:xlink="http://www.w3.org/1999/xlink" xmlns:svgjs="http://svgjs.com/svgjs" viewBox="0.337 0 16.325 11" fill="#898989" x="1834" y="43"><svg xmlns="http://www.w3.org/2000/svg" width="17" height="11" viewBox="0.773 0.616 15.395 10.373"><path paint-order="stroke fill markers" fill-rule="evenodd" d="M16.168.616S6.048 1.211 3.41 8.777c0 0-.695 1.413-2.637.881 0 0 2.474 3.517 4.885-.88 0 0 1.83-6.089 10.51-8.162z"/></svg></svg></svg></svg>